# xmcd
#
# Track frame offsets:
#	150
#	29611
#	54930
#	85355
#	114240
#	144251
#	167345
#	193763
#	216029
#	248608
#	273860
#
# Disc length: 4129 seconds
#
# Revision: 1
# Processed by: cddbd v1.5.2PL0 Copyright (c) Steve Scherf et al.
# Submitted via: audiograbber 1.83.01
#
DISCID=8b101f0b
DTITLE=Vickery-Jewell - Drive My Fears Away
DYEAR=2010
DGENRE=Blues
TTITLE0=Makin' it up to You
TTITLE1=Sun Ain't Gonna Shine
TTITLE2=Easy Street
TTITLE3=True Blues
TTITLE4=Young Magellans
TTITLE5=Power of the Sound
TTITLE6=Echo
TTITLE7=My Love Will Always Show
TTITLE8=Breeze of Change
TTITLE9=Eleanor Rigby
TTITLE10=Drive My Fears Away
EXTD=Recorded at LMP Studios Claremont, CA, www.vickeryjewell.com, GeekRomeoRec
EXTD=ords 0020
EXTT0=
EXTT1=
EXTT2=
EXTT3=
EXTT4=
EXTT5=
EXTT6=
EXTT7=
EXTT8=
EXTT9=
EXTT10=
PLAYORDER=
